<svg width="55" height="50" viewBox="0 0 55 50" fill="none" xmlns="http://www.w3.org/2000/svg">
<path d="M26.8253 0.147938C28.024 -0.466986 29.4873 0.959611 28.8493 2.13794C28.4794 3.09832 27.0769 3.35372 26.3606 2.6217C25.6025 1.9189 25.85 0.530182 26.8253 0.147938ZM13.9317 1.51501C14.6599 1.22 15.5817 1.87648 15.5073 2.65742C15.5845 3.50502 14.5312 4.12925 13.7889 3.72623C12.8055 3.35156 12.9179 1.78059 13.9317 1.51501ZM40.339 3.75004C39.201 3.61476 39.021 1.85462 40.1166 1.499C40.9664 1.09121 41.7459 1.85592 41.8702 2.64832C41.692 3.32494 41.1161 3.94462 40.339 3.74895V3.75004ZM16.8649 6.91318C18.0824 6.15562 19.8196 7.28374 19.6323 8.67505C19.5692 10.0798 17.6726 10.8936 16.6027 9.94386C15.5687 9.19799 15.7249 7.48611 16.8649 6.91318ZM35.4497 7.7175C35.9933 6.34176 38.1942 6.29847 38.8124 7.64044C39.4234 8.68371 38.6718 9.97568 37.5833 10.3302C36.1412 10.5951 34.7715 9.06141 35.4504 7.71858L35.4497 7.7175ZM25.2725 10.2516C25.2606 9.0679 26.3564 8.18589 27.5 8.10537C28.2583 8.25493 29.0851 8.57289 29.4105 9.32591C30.0168 10.3649 29.4785 11.7947 28.3829 12.2715C27.8819 12.5477 27.2895 12.4447 26.7439 12.412C25.9098 12.0092 25.2071 11.2189 25.2725 10.2516ZM6.09812 11.9763C7.21022 11.3036 8.71063 12.5313 8.28954 13.7198C8.05766 14.7479 6.65296 15.1661 5.84996 14.5098C4.99196 13.8949 5.12858 12.4161 6.09812 11.9763ZM47.2725 11.9741C48.2161 11.2534 49.7731 12.0802 49.6607 13.2512C49.724 14.32 48.3778 15.1258 47.4411 14.5756C46.4095 14.1195 46.3043 12.5581 47.2725 11.973V11.9741ZM30.6647 14.1009C32.2216 13.5507 34.0712 14.2092 34.9587 15.5749C36.1293 17.2446 35.5065 19.7872 33.6897 20.7452C31.8074 21.8783 29.0587 20.9183 28.3635 18.8498C27.5741 16.9983 28.7241 14.6812 30.6647 14.1009ZM21.5292 14.2843C23.2549 13.4834 25.5772 14.1544 26.4108 15.8918C27.3918 17.5823 26.6332 19.9361 24.8796 20.8088C23.1237 21.79 20.6465 21.0469 19.7976 19.2311C18.8439 17.4762 19.69 15.0925 21.5292 14.2843ZM12.3818 17.361C12.5138 16.2671 13.5619 15.5554 14.6201 15.4816C15.7603 15.6169 16.6711 16.4881 16.795 17.6245C16.7202 18.7482 15.8373 19.8469 14.6269 19.84C13.295 19.9528 12.1275 18.6487 12.3818 17.361ZM39.4001 15.7204C40.7674 14.9373 42.666 16.0773 42.6052 17.6227C42.699 19.2601 40.5977 20.4149 39.2361 19.4536C37.8218 18.6539 37.932 16.4015 39.4001 15.7204ZM17.8114 21.4906C19.4106 21.0577 21.239 21.7993 22.0233 23.2453C22.8813 24.701 22.5313 26.723 21.197 27.7907C19.4856 29.3567 16.3295 28.7279 15.4187 26.5907C14.3721 24.6317 15.6433 22.0064 17.8114 21.4906ZM35.1389 21.4824C36.6934 21.045 38.5196 21.6339 39.3554 23.0278C40.4605 24.6215 39.9329 26.9983 38.2879 28.0256C36.5647 29.2184 33.8956 28.592 32.9474 26.7269C31.7979 24.7975 32.9547 22.0709 35.1389 21.4824ZM7.52592 23.3005C8.90731 22.7865 10.4385 24.2862 9.87883 25.6336C9.53717 26.8609 7.77892 27.3154 6.87054 26.4098C5.80772 25.56 6.20108 23.6692 7.52592 23.3005ZM44.968 25.2559C44.9282 24.1304 45.7655 23.1326 46.9392 23.0698C47.8853 23.2172 48.8051 23.9681 48.7303 24.9813C48.817 26.3195 47.1779 27.229 46.019 26.6003C45.4758 26.3286 45.1973 25.7812 44.968 25.2559ZM0.734284 23.9605C1.56523 23.6036 2.59329 24.3122 2.40365 25.2202C2.35965 26.2483 0.816344 26.6436 0.249623 25.7845C-0.251319 25.189 0.0483223 24.2691 0.734284 23.9605ZM53.1338 23.9388C53.719 23.5289 54.658 23.8235 54.8896 24.4962C55.283 25.2308 54.5618 26.2373 53.7214 26.113C52.5416 26.2189 52.1594 24.4499 53.1338 23.9388ZM22.3256 28.8738C24.5124 28.3143 26.8631 30.1076 26.877 32.3238C27.0197 34.5622 24.7044 36.5475 22.4659 36.0304C20.7356 35.7564 19.378 34.1166 19.4341 32.3963C19.4295 30.7513 20.6912 29.2219 22.3256 28.8738ZM30.9861 28.8693C33.2057 28.2589 35.6264 30.0851 35.5912 32.3517C35.7084 34.5488 33.4653 36.4672 31.2737 36.0313C29.2112 35.7689 27.6894 33.5395 28.2652 31.5703C28.5558 30.2582 29.6701 29.1911 30.9861 28.8693ZM14.2881 30.2329C15.8239 29.9751 17.2638 31.6614 16.641 33.0956C16.1867 34.6246 13.9251 35.0393 12.9252 33.7904C11.7524 32.5911 12.628 30.3985 14.2881 30.2329ZM39.6856 30.3024C41.0551 29.7381 42.7361 30.9034 42.6308 32.366C42.6858 33.9759 40.6103 35.0858 39.2711 34.1462C37.7531 33.3021 38.0303 30.8201 39.6856 30.3024ZM46.7846 37.3076C46.2484 36.3241 47.2224 35.0207 48.3323 35.2027C48.8847 35.1936 49.2712 35.6217 49.6248 35.9819C49.6974 36.5648 49.8193 37.2589 49.3276 37.7092C48.6599 38.5405 47.1474 38.3024 46.7846 37.3076ZM6.09394 35.4767C7.13124 34.7973 8.62395 35.8105 8.39074 37.0038C8.26666 38.0589 6.91674 38.6619 6.02574 38.0643C5.07072 37.5208 5.10592 35.9733 6.09394 35.4778V35.4767ZM26.587 37.6866C27.9451 37.097 29.6749 38.2602 29.5462 39.7318C29.647 41.3578 27.507 42.484 26.1802 41.5067C24.7062 40.6682 24.9513 38.2016 26.5879 37.686L26.587 37.6866ZM17.094 39.8641C18.2505 39.2654 19.8028 40.2994 19.6975 41.574C19.7327 42.6197 18.6954 43.511 17.6464 43.3565C16.7776 43.3381 16.2111 42.5718 15.9326 41.8433C15.9469 41.0491 16.2791 40.1647 17.094 39.8652V39.8641ZM36.3205 39.8836C37.5098 39.1604 39.2003 40.1992 39.0879 41.561C39.1184 42.9844 37.208 43.8963 36.1005 42.9612C35.0282 42.2283 35.1591 40.4665 36.3205 39.8836ZM39.6645 48.0157C39.1365 47.228 39.7582 46.2791 40.6173 46.0997C41.3081 46.238 42.0385 46.749 41.8933 47.5369C41.7926 48.6031 40.2075 48.9304 39.6645 48.0157ZM13.1238 47.3317C13.3346 46.7075 13.845 46.0871 14.5919 46.2495C15.6807 46.3255 16.0039 47.9399 15.0508 48.4375C14.1939 49.0059 13.1997 48.2276 13.1238 47.3317ZM25.9279 48.0479C26.1364 47.1246 27.3513 46.6754 28.1521 47.1659C28.6801 47.3895 28.8356 47.972 28.9716 48.467C28.899 48.7248 28.8341 48.983 28.7703 49.2408C28.4425 49.623 28.0223 50.0055 27.4756 49.9916C26.4616 50.1085 25.5471 48.9808 25.9279 48.0479Z" fill="white"/>
</svg>
