<svg width="1024" height="1024" viewBox="0 0 1024 1024" fill="none" xmlns="http://www.w3.org/2000/svg">
<path d="M928 160H96C78.3 160 64 174.3 64 192V832C64 849.7 78.3 864 96 864H928C945.7 864 960 849.7 960 832V192C960 174.3 945.7 160 928 160ZM888 270.8V792H136V270.8L108.4 249.3L147.7 198.8L190.5 232.1H833.6L876.4 198.8L915.7 249.3L888 270.8V270.8ZM833.6 232L512 482L190.4 232L147.6 198.7L108.3 249.2L135.9 270.7L477.5 536.3C487.324 543.932 499.41 548.075 511.85 548.075C524.29 548.075 536.376 543.932 546.2 536.3L888 270.8L915.6 249.3L876.3 198.8L833.6 232Z" fill="white"/>
</svg>
