<svg width="754" height="796" viewBox="0 0 754 796" fill="none" xmlns="http://www.w3.org/2000/svg">
<path d="M723.5 649.6C704.636 604.917 677.261 564.33 642.9 530.1C608.643 495.771 568.063 468.4 523.4 449.5C523 449.3 522.6 449.2 522.2 449C584.5 404 625 330.7 625 248C625 111 514 0 377 0C240 0 129 111 129 248C129 330.7 169.5 404 231.8 449.1C231.4 449.3 231 449.4 230.6 449.6C185.8 468.5 145.6 495.6 111.1 530.2C76.771 564.457 49.4005 605.037 30.5001 649.7C11.9323 693.425 1.91825 740.305 1.00006 787.8C0.973369 788.867 1.16057 789.929 1.55064 790.923C1.94071 791.917 2.52576 792.822 3.2713 793.587C4.01684 794.351 4.9078 794.958 5.89168 795.372C6.87555 795.787 7.93244 796 9.00006 796H69.0001C73.4001 796 76.9001 792.5 77.0001 788.2C79.0001 711 110 638.7 164.8 583.9C221.5 527.2 296.8 496 377 496C457.2 496 532.5 527.2 589.2 583.9C644 638.7 675 711 677 788.2C677.1 792.6 680.6 796 685 796H745C746.068 796 747.125 795.787 748.108 795.372C749.092 794.958 749.983 794.351 750.729 793.587C751.474 792.822 752.059 791.917 752.449 790.923C752.84 789.929 753.027 788.867 753 787.8C752 740 742.1 693.5 723.5 649.6V649.6ZM377 420C331.1 420 287.9 402.1 255.4 369.6C222.9 337.1 205 293.9 205 248C205 202.1 222.9 158.9 255.4 126.4C287.9 93.9 331.1 76 377 76C422.9 76 466.1 93.9 498.6 126.4C531.1 158.9 549 202.1 549 248C549 293.9 531.1 337.1 498.6 369.6C466.1 402.1 422.9 420 377 420Z" fill="rgb(133 ,135 ,159)"/>
</svg>
